<svg xmlns="http://www.w3.org/2000/svg" width="15" height="16" viewBox="0 0 15 16" fill="none">
    <path d="M12.2623 3.14196C12.2513 3.06196 12.1812 3.01768 12.1233 3.01281C12.0655 3.00799 10.842 2.9173 10.842 2.9173C10.842 2.9173 9.99234 2.07374 9.89908 1.98037C9.80577 1.88705 9.62352 1.91544 9.55278 1.93626C9.54237 1.93933 9.36714 1.99341 9.07727 2.08311C8.79344 1.26634 8.29251 0.515766 7.41125 0.515766C7.38692 0.515766 7.36188 0.516752 7.33684 0.518177C7.08621 0.186725 6.77574 0.0427246 6.50757 0.0427246C4.4547 0.0427246 3.47393 2.60903 3.16642 3.91314C2.36873 4.16031 1.80204 4.33604 1.72966 4.35878C1.2844 4.49845 1.27031 4.51248 1.21185 4.93204C1.16785 5.24968 0.00280762 14.2595 0.00280762 14.2595L9.08105 15.9604L14 14.8963C14 14.8963 12.2732 3.22196 12.2623 3.14196ZM8.57552 2.23829L7.80736 2.47604C7.80763 2.4219 7.8079 2.36864 7.8079 2.3104C7.8079 1.80278 7.73744 1.39407 7.6244 1.07007C8.07848 1.12705 8.38089 1.64371 8.57552 2.23829ZM7.06111 1.17072C7.18736 1.48705 7.26944 1.94103 7.26944 2.55363C7.26944 2.58497 7.26916 2.61363 7.26889 2.64262C6.76933 2.79735 6.22648 2.96535 5.68242 3.1339C5.9879 1.95494 6.56051 1.38552 7.06111 1.17072ZM6.45119 0.593355C6.53979 0.593355 6.62905 0.623437 6.71448 0.682231C6.05656 0.99182 5.35136 1.77155 5.05355 3.32864L3.79952 3.71703C4.14834 2.52935 4.97667 0.593355 6.45119 0.593355Z" fill="rgb(29, 41, 57)"/>
    <path d="M12.1232 3.01282C12.0654 3.008 10.842 2.91732 10.842 2.91732C10.842 2.91732 9.99227 2.07375 9.89901 1.98039C9.86411 1.94565 9.81704 1.92784 9.76783 1.92017L9.08142 15.9603L13.9999 14.8963C13.9999 14.8963 12.2731 3.22197 12.2622 3.14197C12.2512 3.06197 12.1811 3.0177 12.1232 3.01282Z" fill="rgb(29, 41, 57)"/>
    <path d="M7.4112 5.73074L6.80468 7.5349C6.80468 7.5349 6.27329 7.25129 5.62189 7.25129C4.66693 7.25129 4.61888 7.85058 4.61888 8.00159C4.61888 8.82559 6.76682 9.14132 6.76682 11.0714C6.76682 12.5899 5.8037 13.5677 4.50507 13.5677C2.94671 13.5677 2.14978 12.5979 2.14978 12.5979L2.56704 11.2192C2.56704 11.2192 3.38622 11.9225 4.07745 11.9225C4.52912 11.9225 4.71285 11.5669 4.71285 11.3071C4.71285 10.2322 2.95066 10.1843 2.95066 8.41808C2.95066 6.93156 4.01762 5.49304 6.17137 5.49304C7.00123 5.49304 7.4112 5.73074 7.4112 5.73074Z" fill="white"/>
</svg>