<svg xmlns="http://www.w3.org/2000/svg" width="100" height="26" viewBox="0 0 100 26" fill="none">
    <path d="M13.4996 19.3019L19.009 17.9057L21.3109 25L13.4996 19.3019ZM26.1788 10.1321H16.4807L13.4996 1L10.5184 10.1321H0.820312L8.66937 15.7925L5.68823 24.9245L13.5373 19.2641L18.3675 15.7925L26.1788 10.1321Z" fill="#17B26A"/>
    <path d="M36.0146 6.625V18H34.0693V6.625H36.0146ZM39.585 6.625V8.1875H30.5303V6.625H39.585ZM42.2256 11.1562V18H40.3428V9.54688H42.1396L42.2256 11.1562ZM44.8115 9.49219L44.7959 11.2422C44.6813 11.2214 44.5563 11.2057 44.4209 11.1953C44.2907 11.1849 44.1605 11.1797 44.0303 11.1797C43.7074 11.1797 43.4235 11.2266 43.1787 11.3203C42.9339 11.4089 42.7282 11.5391 42.5615 11.7109C42.4001 11.8776 42.2751 12.0807 42.1865 12.3203C42.098 12.5599 42.0459 12.8281 42.0303 13.125L41.6006 13.1562C41.6006 12.625 41.6527 12.1328 41.7568 11.6797C41.861 11.2266 42.0173 10.8281 42.2256 10.4844C42.4391 10.1406 42.7048 9.8724 43.0225 9.67969C43.3454 9.48698 43.7178 9.39062 44.1396 9.39062C44.2542 9.39062 44.3766 9.40104 44.5068 9.42188C44.6423 9.44271 44.7438 9.46615 44.8115 9.49219ZM51.0771 16.0078V9.54688H52.9678V18H51.1865L51.0771 16.0078ZM51.3428 14.25L51.9756 14.2344C51.9756 14.8021 51.9131 15.3255 51.7881 15.8047C51.6631 16.2786 51.4704 16.6927 51.21 17.0469C50.9495 17.3958 50.6162 17.6693 50.21 17.8672C49.8037 18.0599 49.3167 18.1562 48.749 18.1562C48.3376 18.1562 47.96 18.0964 47.6162 17.9766C47.2725 17.8568 46.9756 17.6719 46.7256 17.4219C46.4808 17.1719 46.2907 16.8464 46.1553 16.4453C46.0199 16.0443 45.9521 15.5651 45.9521 15.0078V9.54688H47.835V15.0234C47.835 15.3307 47.8714 15.5885 47.9443 15.7969C48.0173 16 48.1162 16.1641 48.2412 16.2891C48.3662 16.4141 48.512 16.5026 48.6787 16.5547C48.8454 16.6068 49.0225 16.6328 49.21 16.6328C49.7464 16.6328 50.1683 16.5286 50.4756 16.3203C50.7881 16.1068 51.0094 15.8203 51.1396 15.4609C51.2751 15.1016 51.3428 14.6979 51.3428 14.25ZM59.6396 15.7109C59.6396 15.5234 59.5928 15.3542 59.499 15.2031C59.4053 15.0469 59.2256 14.9062 58.96 14.7812C58.6995 14.6562 58.3141 14.5417 57.8037 14.4375C57.3558 14.3385 56.9443 14.2214 56.5693 14.0859C56.1995 13.9453 55.8818 13.776 55.6162 13.5781C55.3506 13.3802 55.1449 13.1458 54.999 12.875C54.8532 12.6042 54.7803 12.2917 54.7803 11.9375C54.7803 11.5938 54.8558 11.2682 55.0068 10.9609C55.1579 10.6536 55.374 10.3828 55.6553 10.1484C55.9365 9.91406 56.2777 9.72917 56.6787 9.59375C57.085 9.45833 57.5381 9.39062 58.0381 9.39062C58.7464 9.39062 59.3532 9.51042 59.8584 9.75C60.3688 9.98438 60.7594 10.3047 61.0303 10.7109C61.3011 11.112 61.4365 11.5651 61.4365 12.0703H59.5537C59.5537 11.8464 59.4964 11.638 59.3818 11.4453C59.2725 11.2474 59.1058 11.0885 58.8818 10.9688C58.6579 10.8438 58.3766 10.7812 58.0381 10.7812C57.7152 10.7812 57.4469 10.8333 57.2334 10.9375C57.0251 11.0365 56.8688 11.1667 56.7646 11.3281C56.6657 11.4896 56.6162 11.6667 56.6162 11.8594C56.6162 12 56.6423 12.1276 56.6943 12.2422C56.7516 12.3516 56.8454 12.4531 56.9756 12.5469C57.1058 12.6354 57.2829 12.7188 57.5068 12.7969C57.736 12.875 58.0225 12.9505 58.3662 13.0234C59.012 13.1589 59.5667 13.3333 60.0303 13.5469C60.499 13.7552 60.8584 14.026 61.1084 14.3594C61.3584 14.6875 61.4834 15.1042 61.4834 15.6094C61.4834 15.9844 61.4027 16.3281 61.2412 16.6406C61.085 16.9479 60.8558 17.2161 60.5537 17.4453C60.2516 17.6693 59.8896 17.8438 59.4678 17.9688C59.0511 18.0938 58.5824 18.1562 58.0615 18.1562C57.2959 18.1562 56.6475 18.0208 56.1162 17.75C55.585 17.474 55.1813 17.1224 54.9053 16.6953C54.6344 16.263 54.499 15.8151 54.499 15.3516H56.3193C56.3402 15.7005 56.4365 15.9792 56.6084 16.1875C56.7855 16.3906 57.0042 16.5391 57.2646 16.6328C57.5303 16.7214 57.8037 16.7656 58.085 16.7656C58.4235 16.7656 58.7074 16.7214 58.9365 16.6328C59.1657 16.5391 59.3402 16.4141 59.46 16.2578C59.5798 16.0964 59.6396 15.9141 59.6396 15.7109ZM67.0068 9.54688V10.9219H62.2412V9.54688H67.0068ZM63.6162 7.47656H65.499V15.6641C65.499 15.9245 65.5355 16.125 65.6084 16.2656C65.6865 16.401 65.7933 16.4922 65.9287 16.5391C66.0641 16.5859 66.223 16.6094 66.4053 16.6094C66.5355 16.6094 66.6605 16.6016 66.7803 16.5859C66.9001 16.5703 66.9964 16.5547 67.0693 16.5391L67.0771 17.9766C66.9209 18.0234 66.7386 18.0651 66.5303 18.1016C66.3271 18.138 66.0928 18.1562 65.8271 18.1562C65.3949 18.1562 65.012 18.0807 64.6787 17.9297C64.3454 17.7734 64.085 17.5208 63.8975 17.1719C63.71 16.8229 63.6162 16.3594 63.6162 15.7812V7.47656ZM70.3506 11.1719V21.25H68.4678V9.54688H70.2021L70.3506 11.1719ZM75.8584 13.6953V13.8594C75.8584 14.474 75.7855 15.0443 75.6396 15.5703C75.499 16.0911 75.2881 16.5469 75.0068 16.9375C74.7308 17.3229 74.3896 17.6224 73.9834 17.8359C73.5771 18.0495 73.1084 18.1562 72.5771 18.1562C72.0511 18.1562 71.5902 18.0599 71.1943 17.8672C70.8037 17.6693 70.473 17.3906 70.2021 17.0312C69.9313 16.6719 69.7126 16.25 69.5459 15.7656C69.3844 15.276 69.2699 14.7396 69.2021 14.1562V13.5234C69.2699 12.9036 69.3844 12.3411 69.5459 11.8359C69.7126 11.3307 69.9313 10.8958 70.2021 10.5312C70.473 10.1667 70.8037 9.88542 71.1943 9.6875C71.585 9.48958 72.0407 9.39062 72.5615 9.39062C73.0928 9.39062 73.5641 9.49479 73.9756 9.70312C74.387 9.90625 74.7334 10.1979 75.0146 10.5781C75.2959 10.9531 75.5068 11.4062 75.6475 11.9375C75.7881 12.4635 75.8584 13.0495 75.8584 13.6953ZM73.9756 13.8594V13.6953C73.9756 13.3047 73.9391 12.9427 73.8662 12.6094C73.7933 12.2708 73.6787 11.974 73.5225 11.7188C73.3662 11.4635 73.1657 11.2656 72.9209 11.125C72.6813 10.9792 72.3923 10.9062 72.0537 10.9062C71.7204 10.9062 71.4339 10.9635 71.1943 11.0781C70.9548 11.1875 70.7542 11.3411 70.5928 11.5391C70.4313 11.737 70.3063 11.9688 70.2178 12.2344C70.1292 12.4948 70.0667 12.7786 70.0303 13.0859V14.6016C70.0928 14.9766 70.1995 15.3203 70.3506 15.6328C70.5016 15.9453 70.7152 16.1953 70.9912 16.3828C71.2725 16.5651 71.6318 16.6562 72.0693 16.6562C72.4079 16.6562 72.6969 16.5833 72.9365 16.4375C73.1761 16.2917 73.3714 16.0911 73.5225 15.8359C73.6787 15.5755 73.7933 15.276 73.8662 14.9375C73.9391 14.599 73.9756 14.2396 73.9756 13.8594ZM79.4756 9.54688V18H77.585V9.54688H79.4756ZM77.46 7.32812C77.46 7.04167 77.5537 6.80469 77.7412 6.61719C77.9339 6.42448 78.1995 6.32812 78.5381 6.32812C78.8714 6.32812 79.1344 6.42448 79.3271 6.61719C79.5199 6.80469 79.6162 7.04167 79.6162 7.32812C79.6162 7.60938 79.5199 7.84375 79.3271 8.03125C79.1344 8.21875 78.8714 8.3125 78.5381 8.3125C78.1995 8.3125 77.9339 8.21875 77.7412 8.03125C77.5537 7.84375 77.46 7.60938 77.46 7.32812ZM83.5537 6V18H81.6631V6H83.5537ZM85.2568 13.8672V13.6875C85.2568 13.0781 85.3454 12.513 85.5225 11.9922C85.6995 11.4661 85.9548 11.0104 86.2881 10.625C86.6266 10.2344 87.0381 9.93229 87.5225 9.71875C88.012 9.5 88.5641 9.39062 89.1787 9.39062C89.7985 9.39062 90.3506 9.5 90.835 9.71875C91.3245 9.93229 91.7386 10.2344 92.0771 10.625C92.4157 11.0104 92.6735 11.4661 92.8506 11.9922C93.0277 12.513 93.1162 13.0781 93.1162 13.6875V13.8672C93.1162 14.4766 93.0277 15.0417 92.8506 15.5625C92.6735 16.0833 92.4157 16.5391 92.0771 16.9297C91.7386 17.3151 91.3271 17.6172 90.8428 17.8359C90.3584 18.0495 89.8089 18.1562 89.1943 18.1562C88.5745 18.1562 88.0199 18.0495 87.5303 17.8359C87.0459 17.6172 86.6344 17.3151 86.2959 16.9297C85.9574 16.5391 85.6995 16.0833 85.5225 15.5625C85.3454 15.0417 85.2568 14.4766 85.2568 13.8672ZM87.1396 13.6875V13.8672C87.1396 14.2474 87.1787 14.6068 87.2568 14.9453C87.335 15.2839 87.4574 15.5807 87.624 15.8359C87.7907 16.0911 88.0042 16.2917 88.2646 16.4375C88.5251 16.5833 88.835 16.6562 89.1943 16.6562C89.5433 16.6562 89.8454 16.5833 90.1006 16.4375C90.361 16.2917 90.5745 16.0911 90.7412 15.8359C90.9079 15.5807 91.0303 15.2839 91.1084 14.9453C91.1917 14.6068 91.2334 14.2474 91.2334 13.8672V13.6875C91.2334 13.3125 91.1917 12.9583 91.1084 12.625C91.0303 12.2865 90.9053 11.987 90.7334 11.7266C90.5667 11.4661 90.3532 11.263 90.0928 11.1172C89.8376 10.9661 89.5329 10.8906 89.1787 10.8906C88.8245 10.8906 88.5173 10.9661 88.2568 11.1172C88.0016 11.263 87.7907 11.4661 87.624 11.7266C87.4574 11.987 87.335 12.2865 87.2568 12.625C87.1787 12.9583 87.1396 13.3125 87.1396 13.6875ZM98.5693 9.54688V10.9219H93.8037V9.54688H98.5693ZM95.1787 7.47656H97.0615V15.6641C97.0615 15.9245 97.098 16.125 97.1709 16.2656C97.249 16.401 97.3558 16.4922 97.4912 16.5391C97.6266 16.5859 97.7855 16.6094 97.9678 16.6094C98.098 16.6094 98.223 16.6016 98.3428 16.5859C98.4626 16.5703 98.5589 16.5547 98.6318 16.5391L98.6396 17.9766C98.4834 18.0234 98.3011 18.0651 98.0928 18.1016C97.8896 18.138 97.6553 18.1562 97.3896 18.1562C96.9574 18.1562 96.5745 18.0807 96.2412 17.9297C95.9079 17.7734 95.6475 17.5208 95.46 17.1719C95.2725 16.8229 95.1787 16.3594 95.1787 15.7812V7.47656Z" fill="#101828"/>
</svg>